<?xml version="1.0" encoding="utf-8"?>
<!-- Generator: Adobe Illustrator 22.0.0, SVG Export Plug-In . SVG Version: 6.00 Build 0)  -->
<svg version="1.1" id="Layer_1" xmlns="http://www.w3.org/2000/svg" xmlns:xlink="http://www.w3.org/1999/xlink" x="0px" y="0px"
	 viewBox="0 0 500 500" style="enable-background:new 0 0 500 500;" xml:space="preserve">
<style type="text/css">
	.st0{fill:#FDDF7F;}
	.st1{fill:#ECF4F7;}
	.st2{fill:#83E1E5;}
	.st3{fill:#1C1D21;}
	.st4{fill:#AAB1BA;}
</style>
<g>
	<path class="st0" d="M198.709,105.373c-17.072-14.62-38.245-23.682-60.489-26.019c-13.531,18.706-20.964,41.345-21.033,64.58
		c18.434,3.538,36.401,10.112,53.087,19.749C176,142.303,185.774,122.583,198.709,105.373z"/>
</g>
<g>
	<path class="st0" d="M382.812,143.934c-0.069-23.235-7.501-45.874-21.032-64.58c-22.243,2.337-43.417,11.399-60.489,26.019
		c12.935,17.21,22.709,36.93,28.435,58.31C346.412,154.047,364.378,147.472,382.812,143.934z"/>
</g>
<g>
	<path class="st2" d="M495,348.043c-17.119-17.913-44.733-31.678-77.75-38.222c-0.668,0.69-1.32,1.39-2.002,2.072
		C370.475,356.666,307.072,371.389,250,356.159c-57.072,15.23-120.475,0.508-165.248-44.265c-0.682-0.682-1.335-1.381-2.002-2.072
		C49.733,316.365,22.118,330.13,5,348.043c18.346,19.199,48.743,33.641,84.931,39.527c0.001-0.001,0.002-0.002,0.003-0.003
		c-18.748,19.667-23.392,42.912-13.942,64.358c36.183,5.848,75.468,2.785,108.382-9.195c9.478,22.282,33.522,41.018,65.627,52.269
		c32.103-11.251,56.146-29.987,65.625-52.269c32.914,11.98,72.199,15.042,108.382,9.195c9.45-21.445,4.806-44.689-13.939-64.355
		C446.256,381.684,476.654,367.242,495,348.043z"/>
</g>
<g>
	<path class="st1" d="M459.514,146.645c-43.251-11.542-90.13-5.865-129.788,17.038C317.879,119.445,288.744,82.283,250,59.861
		c-38.744,22.421-67.878,59.584-79.726,103.822c-39.659-22.904-86.537-28.58-129.788-17.038
		c-15.23,57.072-0.507,120.476,44.266,165.249c44.773,44.773,108.176,59.496,165.248,44.265
		c57.073,15.23,120.475,0.508,165.248-44.265C460.021,267.12,474.744,203.717,459.514,146.645z"/>
</g>
<path class="st3" d="M234.025,15.975c0-2.761,2.238-5,5-5H245V5c0-2.761,2.238-5,5-5s5,2.239,5,5v5.975h5.975c2.762,0,5,2.239,5,5
	s-2.238,5-5,5H255v5.975c0,2.761-2.238,5-5,5s-5-2.239-5-5v-5.975h-5.975C236.264,20.975,234.025,18.736,234.025,15.975z
	 M410.067,101h5.975v5.975c0,2.761,2.238,5,5,5s5-2.239,5-5V101h5.975c2.762,0,5-2.239,5-5s-2.238-5-5-5h-5.975v-5.975
	c0-2.761-2.238-5-5-5s-5,2.239-5,5V91h-5.975c-2.762,0-5,2.239-5,5S407.306,101,410.067,101z M67.983,101h5.975v5.975
	c0,2.761,2.238,5,5,5s5-2.239,5-5V101h5.975c2.762,0,5-2.239,5-5s-2.238-5-5-5h-5.975v-5.975c0-2.761-2.238-5-5-5s-5,2.239-5,5V91
	h-5.975c-2.762,0-5,2.239-5,5S65.222,101,67.983,101z M498.615,344.589c-12.936-13.536-31.514-24.768-53.727-32.479
	c-2.61-0.906-5.457,0.476-6.363,3.083c-0.905,2.609,0.475,5.458,3.084,6.364c18.763,6.514,34.649,15.62,46.278,26.486
	c-17.569,16.395-44.874,28.68-76.082,34.16c-1.847-1.83-3.804-3.623-5.846-5.353l-0.12-0.101c-0.883-0.745-1.784-1.485-2.707-2.215
	l-0.37-0.285c-0.851-0.668-1.715-1.333-2.603-1.99c-0.162-0.12-0.328-0.239-0.495-0.357l-0.291-0.209
	c-0.767-0.558-1.535-1.114-2.33-1.666c-0.33-0.228-0.669-0.453-1.007-0.678l-0.951-0.638c-0.435-0.293-0.868-0.587-1.312-0.874
	c-1.119-0.725-2.262-1.442-3.43-2.149c-2.361-1.43-5.436-0.674-6.867,1.687c-1.43,2.362-0.675,5.437,1.688,6.867
	c1.08,0.654,2.137,1.317,3.175,1.99c0.389,0.251,0.765,0.506,1.142,0.761l1.025,0.688c0.285,0.189,0.57,0.378,0.846,0.568
	c0.729,0.504,1.433,1.016,2.133,1.525l0.727,0.522c0.809,0.599,1.597,1.205,2.373,1.815l0.34,0.262
	c0.842,0.666,1.661,1.338,2.432,1.988l0.142,0.119c2.479,2.1,4.818,4.3,6.952,6.538c16.455,17.264,21.374,37.193,14.01,56.395
	c-33.207,4.92-68.602,2.104-98.38-7.753c3.429-10.789,3.701-22.676,0.694-34.022c-2.705-10.212-8.027-19.674-15.39-27.363
	c-1.909-1.995-5.074-2.063-7.069-0.153c-1.994,1.91-2.063,5.075-0.153,7.069c6.196,6.47,10.673,14.426,12.946,23.008
	c2.914,10.999,2.174,22.566-2.083,32.572c-8.596,20.203-30.787,37.971-61.024,48.919c-11.477-4.153-21.839-9.284-30.822-15.263
	c-11.502-7.656-20.311-16.372-26.18-25.905c-7.568-12.292-9.81-26.277-6.311-39.377c2.301-8.616,6.985-16.999,13.548-24.243
	c1.854-2.046,1.698-5.208-0.348-7.063c-2.049-1.854-5.21-1.698-7.063,0.349c-7.627,8.418-13.09,18.23-15.8,28.377
	c-2.91,10.899-2.544,22.265,0.931,33.082c-29.787,9.867-65.199,12.687-98.417,7.766c-7.364-19.204-2.444-39.134,14.014-56.398
	c2.128-2.232,4.465-4.431,6.942-6.53c0.023-0.019,0.102-0.083,0.124-0.103c0.8-0.675,1.617-1.346,2.458-2.011l0.337-0.26
	c0.776-0.61,1.564-1.216,2.374-1.815l0.722-0.518c0.704-0.513,1.408-1.024,2.135-1.527c0.277-0.192,0.563-0.381,0.848-0.57
	l1.025-0.688c0.377-0.255,0.753-0.51,1.145-0.763c1.035-0.67,2.092-1.333,3.172-1.988c2.362-1.43,3.117-4.505,1.688-6.867
	c-1.431-2.362-4.504-3.117-6.867-1.687c-1.168,0.707-2.311,1.424-3.427,2.147c-0.446,0.289-0.88,0.582-1.314,0.875l-0.951,0.638
	c-0.338,0.225-0.677,0.45-1.009,0.68c-0.793,0.549-1.562,1.106-2.332,1.667l-0.287,0.206c-0.167,0.118-0.333,0.237-0.494,0.356
	c-0.889,0.657-1.753,1.322-2.604,1.991l-0.368,0.284c-0.923,0.73-1.822,1.468-2.688,2.2c-0.025,0.021-0.12,0.1-0.145,0.121
	c-2.042,1.73-3.998,3.523-5.841,5.349c-31.21-5.48-58.514-17.764-76.083-34.16c11.688-10.923,27.661-20.065,46.529-26.587
	c2.609-0.902,3.994-3.75,3.092-6.359c-0.901-2.608-3.745-3.995-6.359-3.092c-22.323,7.717-40.992,18.985-53.989,32.585
	c-1.847,1.933-1.847,4.977,0,6.909c17.971,18.805,45.835,32.639,79.096,39.418c-14.979,19.419-18.338,41.978-9.063,63.025
	c0.683,1.55,2.104,2.649,3.777,2.92c12.103,1.956,24.518,2.918,36.901,2.918c24.243,0,48.354-3.692,69.695-10.851
	c0.827,1.633,1.715,3.25,2.693,4.838c6.632,10.772,16.44,20.524,29.154,28.987c10.108,6.728,21.786,12.435,34.71,16.964
	c0.535,0.188,1.094,0.281,1.653,0.281s1.118-0.094,1.653-0.281c31.649-11.092,55.604-29.436,66.577-50.783
	c21.336,7.154,45.436,10.844,69.673,10.844c12.382,0,24.802-0.963,36.901-2.918c1.673-0.271,3.095-1.369,3.777-2.92
	c9.276-21.05,5.915-43.612-9.069-63.033c32.908-6.767,61.408-20.896,79.102-39.41C500.462,349.565,500.462,346.521,498.615,344.589z
	 M161.235,233.147c0.357,2.493,2.496,4.291,4.943,4.291c0.235,0,0.475-0.017,0.716-0.051c2.733-0.392,4.632-2.925,4.239-5.659
	c-0.183-1.276-0.351-2.556-0.504-3.841c-0.327-2.741-2.807-4.699-5.558-4.372c-2.742,0.328-4.699,2.816-4.372,5.558
	C160.863,230.437,161.041,231.794,161.235,233.147z M35.276,235.13c-7.582-29.39-7.451-60.434,0.379-89.775
	c0.462-1.729,1.813-3.081,3.542-3.542c23.935-6.387,48.959-7.543,73.177-3.723c1.208-22.049,8.832-43.748,21.794-61.666
	c1.048-1.45,2.792-2.231,4.573-2.042c21.717,2.282,42.056,10.519,59.154,23.884c13.698-17.139,30.524-31.693,49.6-42.732
	c1.549-0.896,3.459-0.896,5.008,0c19.076,11.039,35.901,25.593,49.6,42.732c17.099-13.365,37.438-21.602,59.154-23.884
	c1.778-0.189,3.524,0.592,4.573,2.042c12.962,17.918,20.587,39.617,21.794,61.666c24.218-3.82,49.242-2.664,73.177,3.724
	c1.729,0.461,3.08,1.813,3.542,3.542c7.83,29.341,7.961,60.385,0.379,89.775c-7.814,30.292-23.701,58.06-45.94,80.299
	s-50.006,38.125-80.298,45.939c-14.451,3.729-29.304,5.592-44.155,5.592c-14.912,0-29.82-1.895-44.33-5.649
	c-14.508,3.754-29.419,5.649-44.33,5.649c-14.854,0-29.702-1.863-44.155-5.592c-30.292-7.814-58.059-23.7-80.298-45.939
	S43.091,265.423,35.276,235.13z M335.502,166.175c3.326,13.625,5.046,27.669,5.046,41.835c0,31.451-8.401,62.318-24.295,89.264
	c-13.342,22.619-31.648,42.021-53.363,56.695c53.774,10.277,109.868-6.657,148.823-45.611
	c41.08-41.08,57.683-101.227,43.695-157.607C415.099,140.761,371.772,146.344,335.502,166.175z M308.124,106.25
	c2.875,4.047,5.6,8.207,8.129,12.495c6.99,11.85,12.527,24.46,16.542,37.543c14.175-7.498,29.323-12.967,44.927-16.34
	c-0.823-19.629-7.241-39.018-18.317-55.277C340.596,87.165,323.01,94.577,308.124,106.25z M122.279,139.949
	c15.604,3.373,30.751,8.842,44.927,16.34c4.015-13.083,9.552-25.693,16.542-37.543c2.529-4.288,5.254-8.448,8.129-12.495
	c-14.887-11.673-32.472-19.086-51.281-21.579C129.52,100.931,123.102,120.32,122.279,139.949z M88.287,308.358
	c38.957,38.955,95.05,55.889,148.825,45.61c-36.532-24.701-62.853-62.517-72.971-105.442c-0.634-2.688,1.031-5.38,3.719-6.014
	c2.694-0.634,5.381,1.033,6.014,3.72c10.204,43.286,37.877,81.077,76.126,104.12c49.758-29.976,80.548-84.246,80.548-142.342
	c0-58.096-30.79-112.366-80.548-142.342c-49.758,29.976-80.548,84.246-80.548,142.342c0,2.761-2.238,5-5,5s-5-2.239-5-5
	c0-14.167,1.72-28.211,5.046-41.835c-36.271-19.831-79.594-25.414-119.906-15.424C30.604,207.131,47.207,267.278,88.287,308.358z"/>
</svg>
