<?xml version="1.0" standalone="no"?>
<!DOCTYPE svg PUBLIC "-//W3C//DTD SVG 20010904//EN"
 "http://www.w3.org/TR/2001/REC-SVG-20010904/DTD/svg10.dtd">
<svg version="1.0" xmlns="http://www.w3.org/2000/svg"
 width="700.000000pt" height="700.000000pt" viewBox="0 0 700.000000 700.000000"
 preserveAspectRatio="xMidYMid meet">
<metadata>
Created by potrace 1.14, written by Peter Selinger 2001-2017
</metadata>
<g transform="translate(0.000000,700.000000) scale(0.100000,-0.100000)"
fill="#000000" stroke="none">
<path d="M3453 6978 c-16 -16 -23 -38 -25 -77 l-3 -54 -54 -2 c-45 -1 -58 -6
-77 -28 -20 -23 -21 -31 -13 -56 15 -43 33 -53 94 -54 l55 -1 0 -54 c0 -43 5
-57 26 -78 19 -20 31 -24 52 -20 43 11 62 41 62 100 l0 52 56 1 c65 1 97 23
97 69 0 45 -42 74 -103 70 l-50 -2 0 56 c0 46 -4 60 -22 76 -33 29 -70 29 -95
2z"/>
<path d="M3366 6159 c-60 -38 -147 -100 -195 -137 -90 -70 -290 -263 -357
-346 l-40 -48 -102 67 c-146 95 -359 191 -492 221 -155 35 -244 46 -274 34
-54 -20 -245 -385 -271 -518 -2 -9 -10 -44 -18 -77 -23 -87 -40 -197 -41 -263
0 -22 -3 -23 -45 -18 -264 32 -530 27 -770 -14 -153 -26 -221 -45 -243 -67
-10 -11 -27 -58 -39 -113 -27 -125 -26 -121 -34 -177 -4 -26 -9 -59 -11 -73
-21 -134 -21 -483 0 -610 3 -14 7 -43 11 -65 13 -94 28 -166 51 -250 14 -49
29 -106 34 -125 17 -64 91 -244 145 -351 94 -186 234 -396 354 -529 22 -25 41
-48 41 -51 0 -4 -15 -9 -32 -13 -18 -3 -64 -16 -102 -28 -61 -19 -70 -20 -80
-6 -21 29 -52 38 -88 27 -228 -73 -532 -248 -687 -396 -101 -97 -103 -110 -28
-185 213 -215 547 -389 942 -489 66 -17 121 -32 123 -33 1 -2 -22 -42 -52 -90
-55 -87 -108 -216 -122 -297 -11 -57 -11 -262 -1 -314 4 -22 19 -75 34 -118
31 -89 45 -101 133 -112 30 -3 74 -8 97 -11 158 -20 487 -25 633 -10 179 19
265 31 420 62 33 7 151 38 225 59 57 17 60 17 70 0 84 -146 179 -252 345 -389
129 -105 525 -306 604 -306 20 0 179 65 276 112 303 149 517 337 666 584 11
18 13 18 68 1 67 -22 161 -47 196 -53 14 -3 33 -7 42 -10 10 -3 28 -7 40 -9
13 -2 50 -9 83 -14 33 -6 80 -13 105 -16 25 -3 59 -8 75 -10 168 -24 621 -24
753 -1 15 3 126 18 144 20 33 4 74 86 101 206 20 84 21 240 3 327 -19 89 -67
215 -101 265 -14 20 -25 40 -25 43 0 4 -12 22 -26 41 -15 19 -25 36 -23 38 2
3 51 16 109 31 394 99 737 275 962 496 67 65 65 86 -14 163 -83 81 -109 102
-198 162 -129 87 -257 155 -415 219 -107 43 -137 46 -169 16 l-24 -22 -68 20
c-38 11 -87 23 -108 27 -31 5 -36 9 -25 18 19 15 123 143 191 236 292 399 461
922 461 1425 0 101 -10 286 -19 327 -2 13 -7 43 -10 68 -15 119 -54 267 -74
285 -17 15 -82 36 -155 50 -217 40 -314 49 -515 49 -127 0 -235 -6 -341 -20
-41 -5 -46 -4 -46 13 2 42 -16 165 -38 260 -43 180 -109 339 -207 497 -68 110
-76 116 -151 110 -34 -3 -80 -10 -102 -15 -22 -5 -53 -12 -70 -15 -109 -19
-373 -127 -471 -193 -25 -17 -49 -31 -54 -31 -4 0 -10 -3 -12 -7 -1 -5 -23
-21 -47 -38 l-43 -29 -41 49 c-65 79 -255 265 -342 334 -126 101 -313 221
-344 221 -17 0 -69 -27 -135 -71z"/>
<path d="M1077 5873 c-25 -6 -44 -51 -42 -100 1 -33 -2 -43 -14 -44 -9 0 -32
-2 -51 -3 -35 -2 -79 -21 -81 -34 0 -4 -2 -15 -4 -26 -10 -51 36 -85 108 -80
20 1 38 -1 38 -4 1 -4 2 -27 4 -52 3 -60 11 -76 45 -90 23 -9 34 -9 59 4 17 9
32 24 32 34 1 9 3 33 4 52 1 19 3 41 4 48 0 8 13 11 34 9 75 -9 124 28 112 83
-9 40 -29 53 -83 56 -26 1 -52 3 -57 3 -6 1 -11 27 -11 58 -1 46 -5 60 -24 75
-22 18 -38 20 -73 11z"/>
<path d="M5864 5870 c-30 -12 -36 -24 -39 -83 -2 -29 -4 -54 -4 -57 -1 -3 -26
-5 -57 -6 -62 -1 -80 -14 -89 -59 -7 -35 22 -74 58 -76 12 -1 37 -2 55 -2 17
-1 33 -6 33 -12 1 -5 3 -23 4 -40 1 -16 3 -38 3 -47 3 -27 43 -59 69 -55 29 4
63 31 64 52 1 8 2 34 3 58 l1 42 47 0 c82 1 121 40 99 98 -12 30 -40 41 -101
42 l-45 1 -1 44 c-2 67 -2 68 -24 90 -21 21 -42 24 -76 10z"/>
</g>
</svg>
